<svg width="850" height="221" viewBox="0 0 850 221" fill="none" xmlns="http://www.w3.org/2000/svg">
<path opacity="0.95" d="M159.75 3.89648H61.0428C29.4818 3.89648 3.89648 29.4818 3.89648 61.0428V159.75C3.89648 191.311 29.4818 216.896 61.0428 216.896H159.75C191.311 216.896 216.896 191.311 216.896 159.75V61.0428C216.896 29.4818 191.311 3.89648 159.75 3.89648Z" stroke="url(#paint0_linear_1248_2666)" stroke-width="7.79268"/>
<path d="M151.957 19.4814H68.8351C41.5778 19.4814 19.4814 41.5778 19.4814 68.8351V151.957C19.4814 179.214 41.5778 201.311 68.8351 201.311H151.957C179.214 201.311 201.311 179.214 201.311 151.957V68.8351C201.311 41.5778 179.214 19.4814 151.957 19.4814Z" stroke="white" stroke-opacity="0.15" stroke-width="2.59756"/>
<mask id="mask0_1248_2666" style="mask-type:luminance" maskUnits="userSpaceOnUse" x="19" y="19" width="184" height="184">
<path d="M153.478 19.4814H68.6134C41.4786 19.4814 19.4814 41.4786 19.4814 68.6134V153.478C19.4814 180.612 41.4786 202.609 68.6134 202.609H153.478C180.612 202.609 202.609 180.612 202.609 153.478V68.6134C202.609 41.4786 180.612 19.4814 153.478 19.4814Z" fill="white"/>
</mask>
<g mask="url(#mask0_1248_2666)">
<path d="M62.3413 118.902L93.6071 92.1031L120.406 103.269L151.672 67.5371" stroke="url(#paint1_linear_1248_2666)" stroke-width="8.93307" stroke-linecap="round" stroke-linejoin="round"/>
<path d="M157.032 59.4645L137.671 63.5495L158.621 78.9008L157.032 59.4645Z" fill="url(#paint2_linear_1248_2666)"/>
<path d="M52.981 173.577H171.344" stroke="white" stroke-opacity="0.25" stroke-width="3.3499" stroke-linecap="round"/>
</g>
<path opacity="0.92" d="M82.599 132.729H78.1324C74.4322 132.729 71.4326 135.728 71.4326 139.428V161.761C71.4326 165.461 74.4322 168.461 78.1324 168.461H82.599C86.2992 168.461 89.2988 165.461 89.2988 161.761V139.428C89.2988 135.728 86.2992 132.729 82.599 132.729Z" fill="white"/>
<path opacity="0.92" d="M113.865 121.562H109.399C105.698 121.562 102.699 124.561 102.699 128.261V161.76C102.699 165.461 105.698 168.46 109.399 168.46H113.865C117.565 168.46 120.565 165.461 120.565 161.76V128.261C120.565 124.561 117.565 121.562 113.865 121.562Z" fill="white"/>
<path opacity="0.92" d="M145.131 110.396H140.664C136.964 110.396 133.964 113.396 133.964 117.096V161.762C133.964 165.462 136.964 168.461 140.664 168.461H145.131C148.831 168.461 151.831 165.462 151.831 161.762V117.096C151.831 113.396 148.831 110.396 145.131 110.396Z" fill="white"/>
<path d="M567.713 93.0559C567.373 89.6331 565.916 86.9741 563.342 85.0788C560.768 83.1835 557.274 82.2358 552.861 82.2358C549.863 82.2358 547.331 82.6602 545.266 83.5088C543.201 84.3292 541.617 85.4748 540.514 86.9458C539.439 88.4167 538.901 90.0857 538.901 91.9527C538.845 93.5086 539.17 94.8664 539.877 96.0262C540.613 97.186 541.617 98.1902 542.89 99.0388C544.163 99.8592 545.634 100.581 547.303 101.203C548.972 101.797 550.754 102.306 552.649 102.73L560.457 104.597C564.247 105.446 567.727 106.578 570.895 107.992C574.063 109.406 576.807 111.146 579.127 113.211C581.446 115.276 583.243 117.709 584.516 120.509C585.817 123.31 586.482 126.52 586.51 130.141C586.482 135.459 585.124 140.07 582.436 143.974C579.777 147.849 575.93 150.862 570.895 153.012C565.888 155.134 559.849 156.194 552.777 156.194C545.761 156.194 539.651 155.119 534.446 152.97C529.269 150.82 525.224 147.637 522.311 143.422C519.425 139.179 517.912 133.932 517.77 127.68H535.549C535.747 130.594 536.582 133.027 538.053 134.979C539.552 136.902 541.546 138.359 544.036 139.349C546.553 140.311 549.396 140.792 552.564 140.792C555.676 140.792 558.378 140.339 560.669 139.434C562.989 138.529 564.785 137.27 566.058 135.657C567.331 134.045 567.967 132.192 567.967 130.099C567.967 128.147 567.387 126.506 566.227 125.177C565.096 123.847 563.427 122.716 561.221 121.782C559.042 120.849 556.369 120 553.201 119.236L543.739 116.86C536.412 115.078 530.627 112.292 526.384 108.501C522.141 104.711 520.033 99.6046 520.062 93.1832C520.033 87.9217 521.434 83.3249 524.262 79.3929C527.12 75.4609 531.037 72.3917 536.016 70.1852C540.995 67.9788 546.652 66.8756 552.989 66.8756C559.438 66.8756 565.068 67.9788 569.877 70.1852C574.714 72.3917 578.476 75.4609 581.163 79.3929C583.851 83.3249 585.237 87.8793 585.322 93.0559H567.713ZM628.231 156.237C621.527 156.237 615.756 154.879 610.919 152.163C606.11 149.419 602.404 145.544 599.802 140.537C597.199 135.502 595.898 129.547 595.898 122.673C595.898 115.969 597.199 110.085 599.802 105.022C602.404 99.9582 606.067 96.012 610.791 93.1832C615.544 90.3545 621.116 88.9401 627.51 88.9401C631.809 88.9401 635.812 89.6331 639.518 91.0192C643.252 92.377 646.505 94.4279 649.277 97.1718C652.078 99.9157 654.256 103.367 655.812 107.525C657.367 111.655 658.145 116.492 658.145 122.037V127.001H603.111V115.799H641.13C641.13 113.197 640.564 110.891 639.433 108.883C638.301 106.875 636.731 105.305 634.723 104.173C632.743 103.013 630.437 102.433 627.807 102.433C625.063 102.433 622.63 103.07 620.508 104.343C618.415 105.587 616.774 107.271 615.586 109.392C614.398 111.485 613.79 113.819 613.762 116.393V127.044C613.762 130.269 614.356 133.055 615.544 135.403C616.76 137.751 618.472 139.561 620.678 140.834C622.884 142.107 625.501 142.744 628.528 142.744C630.536 142.744 632.375 142.461 634.044 141.895C635.713 141.329 637.142 140.48 638.33 139.349C639.518 138.217 640.423 136.831 641.045 135.191L657.763 136.294C656.915 140.311 655.175 143.818 652.544 146.817C649.942 149.787 646.576 152.107 642.446 153.776C638.344 155.416 633.606 156.237 628.231 156.237ZM688.017 68.0636V154.964H669.941V68.0636H688.017ZM720.573 68.0636V154.964H702.497V68.0636H720.573ZM764.755 156.237C758.051 156.237 752.28 154.879 747.443 152.163C742.634 149.419 738.928 145.544 736.326 140.537C733.723 135.502 732.422 129.547 732.422 122.673C732.422 115.969 733.723 110.085 736.326 105.022C738.928 99.9582 742.591 96.012 747.316 93.1832C752.068 90.3545 757.641 88.9401 764.034 88.9401C768.333 88.9401 772.336 89.6331 776.042 91.0192C779.776 92.377 783.029 94.4279 785.801 97.1718C788.602 99.9157 790.78 103.367 792.336 107.525C793.891 111.655 794.669 116.492 794.669 122.037V127.001H739.635V115.799H777.654C777.654 113.197 777.089 110.891 775.957 108.883C774.825 106.875 773.256 105.305 771.247 104.173C769.267 103.013 766.961 102.433 764.331 102.433C761.587 102.433 759.154 103.07 757.032 104.343C754.939 105.587 753.298 107.271 752.11 109.392C750.922 111.485 750.314 113.819 750.286 116.393V127.044C750.286 130.269 750.88 133.055 752.068 135.403C753.284 137.751 754.996 139.561 757.202 140.834C759.409 142.107 762.025 142.744 765.052 142.744C767.06 142.744 768.899 142.461 770.568 141.895C772.237 141.329 773.666 140.48 774.854 139.349C776.042 138.217 776.947 136.831 777.569 135.191L794.288 136.294C793.439 140.311 791.699 143.818 789.068 146.817C786.466 149.787 783.1 152.107 778.97 153.776C774.868 155.416 770.13 156.237 764.755 156.237ZM806.465 154.964V89.7887H823.99V101.16H824.669C825.857 97.1152 827.851 94.0602 830.652 91.9952C833.452 89.9019 836.677 88.8552 840.326 88.8552C841.231 88.8552 842.207 88.9118 843.254 89.0249C844.3 89.1381 845.22 89.2937 846.012 89.4917V105.531C845.163 105.276 843.989 105.05 842.49 104.852C840.991 104.654 839.619 104.555 838.374 104.555C835.715 104.555 833.339 105.135 831.246 106.295C829.181 107.426 827.54 109.01 826.323 111.047C825.135 113.084 824.541 115.432 824.541 118.091V154.964H806.465Z" fill="#FF007A"/>
<path d="M251.723 154.964V68.0636H270.096V103.918H307.394V68.0636H325.724V154.964H307.394V119.067H270.096V154.964H251.723ZM370.235 156.237C363.531 156.237 357.76 154.879 352.923 152.163C348.114 149.419 344.408 145.544 341.806 140.537C339.203 135.502 337.902 129.547 337.902 122.673C337.902 115.969 339.203 110.085 341.806 105.022C344.408 99.9582 348.072 96.012 352.796 93.1832C357.548 90.3545 363.121 88.9401 369.514 88.9401C373.814 88.9401 377.816 89.6331 381.522 91.0192C385.256 92.377 388.509 94.4279 391.281 97.1718C394.082 99.9157 396.26 103.367 397.816 107.525C399.372 111.655 400.15 116.492 400.15 122.037V127.001H345.116V115.799H383.134C383.134 113.197 382.569 110.891 381.437 108.883C380.306 106.875 378.736 105.305 376.727 104.173C374.747 103.013 372.442 102.433 369.811 102.433C367.067 102.433 364.634 103.07 362.513 104.343C360.419 105.587 358.779 107.271 357.59 109.392C356.402 111.485 355.794 113.819 355.766 116.393V127.044C355.766 130.269 356.36 133.055 357.548 135.403C358.764 137.751 360.476 139.561 362.682 140.834C364.889 142.107 367.505 142.744 370.532 142.744C372.541 142.744 374.379 142.461 376.048 141.895C377.717 141.329 379.146 140.48 380.334 139.349C381.522 138.217 382.427 136.831 383.05 135.191L399.768 136.294C398.919 140.311 397.179 143.818 394.549 146.817C391.946 149.787 388.58 152.107 384.45 153.776C380.348 155.416 375.61 156.237 370.235 156.237ZM430.021 68.0636V154.964H411.946V68.0636H430.021ZM444.501 179.405V89.7887H462.323V100.736H463.129C463.921 98.9822 465.067 97.2001 466.566 95.3897C468.093 93.551 470.074 92.0234 472.506 90.8071C474.967 89.5624 478.022 88.9401 481.672 88.9401C486.424 88.9401 490.808 90.1847 494.825 92.6741C498.842 95.1351 502.053 98.855 504.457 103.834C506.862 108.784 508.064 114.993 508.064 122.461C508.064 129.731 506.89 135.87 504.542 140.877C502.223 145.855 499.054 149.632 495.038 152.206C491.049 154.752 486.579 156.025 481.629 156.025C478.121 156.025 475.137 155.445 472.676 154.285C470.243 153.125 468.249 151.668 466.693 149.914C465.137 148.132 463.949 146.336 463.129 144.526H462.577V179.405H444.501ZM462.195 122.376C462.195 126.252 462.733 129.632 463.808 132.517C464.883 135.403 466.439 137.652 468.475 139.264C470.512 140.848 472.987 141.64 475.901 141.64C478.843 141.64 481.332 140.834 483.369 139.222C485.406 137.581 486.947 135.318 487.994 132.433C489.069 129.519 489.606 126.167 489.606 122.376C489.606 118.614 489.083 115.304 488.036 112.447C486.99 109.59 485.448 107.355 483.411 105.743C481.374 104.131 478.871 103.324 475.901 103.324C472.959 103.324 470.47 104.102 468.433 105.658C466.424 107.214 464.883 109.42 463.808 112.278C462.733 115.135 462.195 118.501 462.195 122.376Z" fill="white"/>
<defs>
<linearGradient id="paint0_linear_1248_2666" x1="3.89648" y1="3.89648" x2="216.896" y2="216.896" gradientUnits="userSpaceOnUse">
<stop stop-color="#FF007A"/>
<stop offset="1" stop-color="#FF4AA6"/>
</linearGradient>
<linearGradient id="paint1_linear_1248_2666" x1="62.3413" y1="67.5371" x2="106.734" y2="144.742" gradientUnits="userSpaceOnUse">
<stop stop-color="#FF007A"/>
<stop offset="1" stop-color="#FF4AA6"/>
</linearGradient>
<linearGradient id="paint2_linear_1248_2666" x1="154.384" y1="54.5488" x2="142.994" y2="81.7706" gradientUnits="userSpaceOnUse">
<stop stop-color="#FF007A"/>
<stop offset="1" stop-color="#FF4AA6"/>
</linearGradient>
</defs>
</svg>
